<?xml version="1.0" standalone="no"?>
<!DOCTYPE svg PUBLIC "-//W3C//DTD SVG 20010904//EN"
 "http://www.w3.org/TR/2001/REC-SVG-20010904/DTD/svg10.dtd">
<svg version="1.0" xmlns="http://www.w3.org/2000/svg"
 width="32.000000pt" height="32.000000pt" viewBox="0 0 32.000000 32.000000"
 preserveAspectRatio="xMidYMid meet">
<metadata>
Created by potrace 1.16, written by Peter Selinger 2001-2019
</metadata>
<g transform="translate(0.000000,32.000000) scale(0.100000,-0.100000)"
fill="#000000" stroke="none">
<path d="M120 297 c-40 -14 -80 -67 -80 -107 0 -15 11 -43 23 -62 21 -31 24
-71 4 -69 -4 1 -7 -2 -7 -6 0 -5 42 -8 93 -9 92 -1 107 4 106 36 0 10 -3 8 -9
-5 l-9 -20 -1 20 -1 20 -9 -20 -9 -20 -1 20 -1 20 -10 -20 -9 -20 3 20 c1 11
9 20 17 20 20 0 60 63 60 94 0 31 -32 86 -57 99 -34 17 -68 20 -103 9z"/>
</g>
</svg>
